<svg width="1024" height="1024" xmlns="http://www.w3.org/2000/svg" class="icon">
 <defs>
  <style type="text/css"/>
 </defs>
 <g>
  <title>background</title>
  <rect fill="none" id="canvas_background" height="1026" width="1026" y="-1" x="-1"/>
 </g>
 <g>
  <title>Layer 1</title>
  <path transform="rotate(90.21018981933594 135.48568725585943,529.5129394531249) " stroke="null" id="svg_5"/>
  <path transform="rotate(90.21018981933594 53.48567962646493,607.5129394531249) " stroke="null" id="svg_6"/>
  <path stroke="null" transform="rotate(18.83320426940918 117.4856567382813,449.512939453125) " id="svg_11"/>
  <path stroke="null" transform="rotate(90.21018981933594 117.48565673828128,449.51293945312494) " id="svg_24"/>
  <defs>
   <style type="text/css"/>
  </defs>
  <g id="svg_8" transform="rotate(-134.47653198242188 49.49999618530274,487.5) " stroke="null">
   <path d="m56.12521,494.21482l5.24266,-3.49514l-0.70746,-0.71715l-5.62246,1.00401l-5.47725,-5.55222l11.28961,-4.35572l-1.84313,-1.86835l-12.75293,2.5855l-4.95969,-5.31443s-1.56014,-1.86836 -3.21336,-0.57372c-1.27344,1.67586 0.56597,3.25735 0.56597,3.25735l5.24266,5.02757l-2.54686,12.92373l1.84312,1.86836l4.29691,-11.44415l5.47724,5.55222l-0.99044,5.69943l0.70746,0.71714l3.44795,-5.31443z" fill="#B9FFCE" id="svg_7" stroke="null"/>
  </g>
  <g id="svg_26" transform="rotate(-134.47653198242188 75.50000000000001,488.50000000000006) " stroke="null">
   <path d="m82.12521,495.21482l5.24266,-3.49514l-0.70746,-0.71715l-5.62246,1.00401l-5.47725,-5.55222l11.28961,-4.35572l-1.84313,-1.86835l-12.75293,2.5855l-4.95969,-5.31443s-1.56014,-1.86836 -3.21337,-0.57372c-1.27343,1.67586 0.56597,3.25735 0.56597,3.25735l5.24267,5.02757l-2.54686,12.92373l1.84312,1.86836l4.29691,-11.44415l5.47724,5.55222l-0.99044,5.69943l0.70746,0.71714l3.44795,-5.31443z" fill="#B9FFCE" id="svg_25" stroke="null"/>
  </g>
  <g id="svg_28" transform="rotate(-134.47653198242188 101.50000000000001,489.5526428222656) " stroke="null">
   <path d="m108.12521,496.26745l5.24266,-3.49514l-0.70746,-0.71715l-5.62246,1.00401l-5.47725,-5.55222l11.28961,-4.35572l-1.84313,-1.86835l-12.75293,2.5855l-4.95969,-5.31443s-1.56014,-1.86836 -3.21337,-0.57372c-1.27343,1.67586 0.56597,3.25735 0.56597,3.25735l5.24267,5.02757l-2.54686,12.92373l1.84312,1.86836l4.29691,-11.44415l5.47724,5.55222l-0.99044,5.69943l0.70746,0.71714l3.44795,-5.31443z" fill="#B9FFCE" id="svg_27" stroke="null"/>
  </g>
  <g id="svg_30" transform="rotate(-134.47653198242188 128.5,489.5526428222656) " stroke="null">
   <path d="m135.12521,496.26745l5.24266,-3.49514l-0.70746,-0.71715l-5.62246,1.00401l-5.47725,-5.55222l11.28961,-4.35572l-1.84313,-1.86835l-12.75293,2.5855l-4.95969,-5.31443s-1.56014,-1.86836 -3.21337,-0.57372c-1.27343,1.67586 0.56597,3.25735 0.56597,3.25735l5.24267,5.02757l-2.54686,12.92373l1.84312,1.86836l4.29691,-11.44415l5.47724,5.55222l-0.99044,5.69943l0.70746,0.71714l3.44795,-5.31443z" fill="#B9FFCE" id="svg_29" stroke="null"/>
  </g>
  <g id="svg_32" transform="rotate(-134.47653198242188 155.50000000000003,489.5) " stroke="null">
   <path d="m162.12521,496.21482l5.24266,-3.49514l-0.70746,-0.71715l-5.62246,1.00401l-5.47725,-5.55222l11.28961,-4.35572l-1.84313,-1.86835l-12.75293,2.5855l-4.95969,-5.31443s-1.56014,-1.86836 -3.21337,-0.57372c-1.27343,1.67586 0.56597,3.25735 0.56597,3.25735l5.24267,5.02757l-2.54686,12.92373l1.84312,1.86836l4.29691,-11.44415l5.47724,5.55222l-0.99044,5.69943l0.70746,0.71714l3.44795,-5.31443z" fill="#B9FFCE" id="svg_31" stroke="null"/>
  </g>
  <g id="svg_34" transform="rotate(-134.47653198242188 182.50000000000006,489.44735717773443) " stroke="null">
   <path d="m189.12521,496.16219l5.24266,-3.49514l-0.70746,-0.71715l-5.62246,1.00401l-5.47725,-5.55222l11.28961,-4.35572l-1.84313,-1.86835l-12.75293,2.5855l-4.95969,-5.31443s-1.56014,-1.86836 -3.21337,-0.57372c-1.27343,1.67586 0.56597,3.25735 0.56597,3.25735l5.24267,5.02757l-2.54686,12.92373l1.84312,1.86836l4.29691,-11.44415l5.47724,5.55222l-0.99044,5.69943l0.70746,0.71714l3.44795,-5.31443z" fill="#B9FFCE" id="svg_33" stroke="null"/>
  </g>
  <g id="svg_36" transform="rotate(-134.47653198242188 208.5,489.4473571777344) " stroke="null">
   <path d="m215.12521,496.16219l5.24266,-3.49514l-0.70746,-0.71715l-5.62246,1.00401l-5.47725,-5.55222l11.28961,-4.35572l-1.84313,-1.86835l-12.75293,2.5855l-4.95969,-5.31443s-1.56014,-1.86836 -3.21337,-0.57372c-1.27343,1.67586 0.56597,3.25735 0.56597,3.25735l5.24267,5.02757l-2.54686,12.92373l1.84312,1.86836l4.29691,-11.44415l5.47724,5.55222l-0.99044,5.69943l0.70746,0.71714l3.44795,-5.31443z" fill="#B9FFCE" id="svg_35" stroke="null"/>
  </g>
  <g id="svg_38" transform="rotate(-134.47653198242188 236.5,490.4473571777344) " stroke="null">
   <path d="m243.12521,497.16219l5.24266,-3.49514l-0.70746,-0.71715l-5.62246,1.00401l-5.47725,-5.55222l11.28961,-4.35572l-1.84313,-1.86835l-12.75293,2.5855l-4.95969,-5.31443s-1.56014,-1.86836 -3.21337,-0.57372c-1.27343,1.67586 0.56597,3.25735 0.56597,3.25735l5.24267,5.02757l-2.54686,12.92373l1.84312,1.86836l4.29691,-11.44415l5.47724,5.55222l-0.99044,5.69943l0.70746,0.71714l3.44795,-5.31443z" fill="#B9FFCE" id="svg_37" stroke="null"/>
  </g>
  <g id="svg_40" transform="rotate(-134.47653198242188 262.5,490.4473571777344) " stroke="null">
   <path d="m269.12521,497.16219l5.24266,-3.49514l-0.70746,-0.71715l-5.62246,1.00401l-5.47725,-5.55222l11.28961,-4.35572l-1.84313,-1.86835l-12.75293,2.5855l-4.95969,-5.31443s-1.56014,-1.86836 -3.21337,-0.57372c-1.27343,1.67586 0.56597,3.25735 0.56597,3.25735l5.24267,5.02757l-2.54686,12.92373l1.84312,1.86836l4.29691,-11.44415l5.47724,5.55222l-0.99044,5.69943l0.70746,0.71714l3.44795,-5.31443z" fill="#B9FFCE" id="svg_39" stroke="null"/>
  </g>
  <g id="svg_42" transform="rotate(-134.47653198242188 982.4992675781251,490.4470825195313) " stroke="null">
   <path d="m989.12386,497.16219l5.24266,-3.49514l-0.70746,-0.71715l-5.62246,1.00401l-5.47725,-5.55222l11.28961,-4.35572l-1.84313,-1.86835l-12.75293,2.5855l-4.95969,-5.31443s-1.56014,-1.86836 -3.21337,-0.57372c-1.27343,1.67586 0.56597,3.25735 0.56597,3.25735l5.24267,5.02757l-2.54686,12.92373l1.84312,1.86836l4.29691,-11.44415l5.47724,5.55222l-0.99044,5.69943l0.70746,0.71714l3.44795,-5.31443z" fill="#B9FFCE" id="svg_41" stroke="null"/>
  </g>
  <g id="svg_44" transform="rotate(-134.47653198242188 955.1313476562501,490.44708251953136) " stroke="null">
   <path d="m961.75549,497.16219l5.24266,-3.49514l-0.70746,-0.71715l-5.62246,1.00401l-5.47725,-5.55222l11.28961,-4.35572l-1.84313,-1.86835l-12.75293,2.5855l-4.95969,-5.31443s-1.56014,-1.86836 -3.21337,-0.57372c-1.27343,1.67586 0.56597,3.25735 0.56597,3.25735l5.24267,5.02757l-2.54686,12.92373l1.84312,1.86836l4.29691,-11.44415l5.47724,5.55222l-0.99044,5.69943l0.70746,0.71714l3.44795,-5.31443z" fill="#B9FFCE" id="svg_43" stroke="null"/>
  </g>
  <g id="svg_46" transform="rotate(-134.47653198242188 926.7108154296874,490.4470825195312) " stroke="null">
   <path d="m933.33449,497.16219l5.24266,-3.49514l-0.70746,-0.71715l-5.62246,1.00401l-5.47725,-5.55222l11.28961,-4.35572l-1.84313,-1.86835l-12.75293,2.5855l-4.95969,-5.31443s-1.56014,-1.86836 -3.21337,-0.57372c-1.27343,1.67586 0.56597,3.25735 0.56597,3.25735l5.24267,5.02757l-2.54686,12.92373l1.84312,1.86836l4.29691,-11.44415l5.47724,5.55222l-0.99044,5.69943l0.70746,0.71714l3.44795,-5.31443z" fill="#B9FFCE" id="svg_45" stroke="null"/>
  </g>
  <g id="svg_48" transform="rotate(133.61444091796875 359.3420104980469,610.447021484375) " stroke="null">
   <path d="m365.96712,617.16196l5.24266,-3.49514l-0.70746,-0.71715l-5.62246,1.00401l-5.47725,-5.55222l11.28961,-4.35572l-1.84313,-1.86835l-12.75293,2.5855l-4.95969,-5.31443s-1.56014,-1.86836 -3.21337,-0.57372c-1.27343,1.67586 0.56597,3.25735 0.56597,3.25735l5.24267,5.02757l-2.54686,12.92373l1.84312,1.86836l4.29691,-11.44415l5.47724,5.55222l-0.99044,5.69943l0.70746,0.71714l3.44795,-5.31443z" fill="#B9FFCE" id="svg_47" stroke="null"/>
  </g>
  <g id="svg_50" transform="rotate(133.61444091796875 360.39465332031256,566.2373046875) " stroke="null">
   <path d="m367.01975,572.95152l5.24266,-3.49514l-0.70746,-0.71715l-5.62246,1.00401l-5.47725,-5.55222l11.28961,-4.35572l-1.84313,-1.86835l-12.75293,2.5855l-4.95969,-5.31443s-1.56014,-1.86836 -3.21337,-0.57372c-1.27343,1.67586 0.56597,3.25735 0.56597,3.25735l5.24267,5.02757l-2.54686,12.92373l1.84312,1.86836l4.29691,-11.44415l5.47724,5.55222l-0.99044,5.69943l0.70746,0.71714l3.44795,-5.31443z" fill="#B9FFCE" id="svg_49" stroke="null"/>
  </g>
  <g id="svg_54" transform="rotate(168.2551727294922 379.34185791015625,513.605224609375) " stroke="null">
   <path d="m385.96708,520.32004l5.24266,-3.49514l-0.70746,-0.71715l-5.62246,1.00401l-5.47725,-5.55222l11.28961,-4.35572l-1.84313,-1.86835l-12.75293,2.5855l-4.95969,-5.31443s-1.56014,-1.86836 -3.21337,-0.57372c-1.27343,1.67586 0.56597,3.25735 0.56597,3.25735l5.24267,5.02757l-2.54686,12.92373l1.84312,1.86836l4.29691,-11.44415l5.47724,5.55222l-0.99044,5.69943l0.70746,0.71714l3.44795,-5.31443z" fill="#B9FFCE" id="svg_53" stroke="null"/>
  </g>
  <g id="svg_56" transform="rotate(-135.30149841308594 438.2891235351563,492.5538635253906) " stroke="null">
   <path d="m444.91434,499.26744l5.24266,-3.49514l-0.70746,-0.71715l-5.62246,1.00401l-5.47725,-5.55222l11.28961,-4.35572l-1.84313,-1.86835l-12.75293,2.5855l-4.95969,-5.31443s-1.56014,-1.86836 -3.21337,-0.57372c-1.27343,1.67586 0.56597,3.25735 0.56597,3.25735l5.24267,5.02757l-2.54686,12.92373l1.84312,1.86836l4.29691,-11.44415l5.47724,5.55222l-0.99044,5.69943l0.70746,0.71714l3.44795,-5.31443z" fill="#B9FFCE" id="svg_55" stroke="null"/>
  </g>
  <g id="svg_58" transform="rotate(-134.2810516357422 479.34167480468744,492.5526428222657) " stroke="null">
   <path d="m485.96689,499.26744l5.24266,-3.49514l-0.70746,-0.71715l-5.62246,1.00401l-5.47725,-5.55222l11.28961,-4.35572l-1.84313,-1.86835l-12.75293,2.5855l-4.95969,-5.31443s-1.56014,-1.86836 -3.21337,-0.57372c-1.27343,1.67586 0.56597,3.25735 0.56597,3.25735l5.24267,5.02757l-2.54686,12.92373l1.84312,1.86836l4.29691,-11.44415l5.47724,5.55222l-0.99044,5.69943l0.70746,0.71714l3.44795,-5.31443z" fill="#B9FFCE" id="svg_57" stroke="null"/>
  </g>
  <g id="svg_60" transform="rotate(-94.07210540771484 536.18359375,512.5526123046875) " stroke="null">
   <path d="m542.80889,519.2674l5.24266,-3.49514l-0.70746,-0.71715l-5.62246,1.00401l-5.47725,-5.55222l11.28961,-4.35572l-1.84313,-1.86835l-12.75293,2.5855l-4.95969,-5.31443s-1.56014,-1.86836 -3.21337,-0.57372c-1.27343,1.67586 0.56597,3.25735 0.56597,3.25735l5.24267,5.02757l-2.54686,12.92373l1.84312,1.86836l4.29691,-11.44415l5.47724,5.55222l-0.99044,5.69943l0.70746,0.71714l3.44795,-5.31443z" fill="#B9FFCE" id="svg_59" stroke="null"/>
  </g>
  <g id="svg_62" transform="rotate(-43.89351272583008 545.6573486328125,560.973388671875) " stroke="null">
   <path d="m552.28256,567.68836l5.24266,-3.49514l-0.70746,-0.71715l-5.62247,1.00401l-5.47725,-5.55222l11.28961,-4.35572l-1.84312,-1.86835l-12.75293,2.5855l-4.95969,-5.31443s-1.56015,-1.86836 -3.21338,-0.57372c-1.27343,1.67586 0.56597,3.25735 0.56597,3.25735l5.24267,5.02757l-2.54686,12.92373l1.84312,1.86836l4.29691,-11.44415l5.47724,5.55222l-0.99044,5.69943l0.70746,0.71714l3.44795,-5.31443l0.00001,0z" fill="#B9FFCE" id="svg_61" stroke="null"/>
  </g>
  <g id="svg_64" transform="rotate(-44.64817810058594 545.6573486328124,590.4471435546874) " stroke="null">
   <path d="m552.28256,597.162l5.24266,-3.49514l-0.70746,-0.71715l-5.62246,1.00401l-5.47725,-5.55222l11.28961,-4.35572l-1.84313,-1.86835l-12.75293,2.5855l-4.95969,-5.31443s-1.56014,-1.86836 -3.21337,-0.57372c-1.27343,1.67586 0.56597,3.25735 0.56597,3.25735l5.24267,5.02757l-2.54686,12.92373l1.84312,1.86836l4.29691,-11.44415l5.47724,5.55222l-0.99044,5.69943l0.70746,0.71714l3.44795,-5.31443z" fill="#B9FFCE" id="svg_63" stroke="null"/>
  </g>
  <g id="svg_66" transform="rotate(175.31077575683594 611.9730224609375,550.447265625) " stroke="null">
   <path d="m618.59823,557.16207l5.24266,-3.49514l-0.70746,-0.71714l-5.62246,1.00401l-5.47725,-5.55223l11.28961,-4.35572l-1.84313,-1.86835l-12.75293,2.58551l-4.95969,-5.31443s-1.56014,-1.86837 -3.21337,-0.57372c-1.27343,1.67586 0.56597,3.25734 0.56597,3.25734l5.24267,5.02757l-2.54686,12.92373l1.84312,1.86836l4.29691,-11.44415l5.47724,5.55222l-0.99044,5.69944l0.70746,0.71713l3.44795,-5.31443z" fill="#B9FFCE" id="svg_65" stroke="null"/>
  </g>
  <g id="svg_68" transform="rotate(-177.31910705566406 643.5518798828124,523.0789794921874) " stroke="null">
   <path d="m650.17712,529.7937l5.24266,-3.49514l-0.70746,-0.71715l-5.62246,1.00401l-5.47725,-5.55222l11.28961,-4.35572l-1.84313,-1.86835l-12.75293,2.5855l-4.95969,-5.31443s-1.56014,-1.86836 -3.21337,-0.57372c-1.27343,1.67586 0.56597,3.25735 0.56597,3.25735l5.24267,5.02757l-2.54686,12.92373l1.84312,1.86836l4.29691,-11.44415l5.47724,5.55222l-0.99044,5.69943l0.70746,0.71714l3.44795,-5.31443z" fill="#B9FFCE" id="svg_67" stroke="null"/>
  </g>
  <g id="svg_70" transform="rotate(-156.19212341308594 683.5518188476564,505.1842041015625) " stroke="null">
   <path d="m690.17704,511.899l5.24266,-3.49514l-0.70746,-0.71715l-5.62246,1.00401l-5.47725,-5.55222l11.28961,-4.35572l-1.84313,-1.86835l-12.75293,2.5855l-4.95969,-5.31443s-1.56014,-1.86836 -3.21337,-0.57372c-1.27343,1.67586 0.56597,3.25735 0.56597,3.25735l5.24267,5.02757l-2.54686,12.92373l1.84312,1.86836l4.29691,-11.44415l5.47724,5.55222l-0.99044,5.69943l0.70746,0.71714l3.44795,-5.31443z" fill="#B9FFCE" id="svg_69" stroke="null"/>
  </g>
  <g id="svg_72" transform="rotate(-135.1870880126953 721.4464111328125,499.92102050781244) " stroke="null">
   <path d="m728.0717,506.63585l5.24266,-3.49514l-0.70746,-0.71715l-5.62246,1.00401l-5.47725,-5.55222l11.28961,-4.35572l-1.84313,-1.86835l-12.75293,2.5855l-4.95969,-5.31443s-1.56014,-1.86836 -3.21337,-0.57372c-1.27343,1.67586 0.56597,3.25735 0.56597,3.25735l5.24267,5.02757l-2.54686,12.92373l1.84312,1.86836l4.29691,-11.44415l5.47724,5.55222l-0.99044,5.69943l0.70746,0.71714l3.44795,-5.31443z" fill="#B9FFCE" id="svg_71" stroke="null"/>
  </g>
  <g id="svg_74" transform="rotate(-135.30484008789062 755.130615234375,499.9209289550782) " stroke="null">
   <path d="m761.75586,506.63585l5.24266,-3.49514l-0.70746,-0.71715l-5.62246,1.00401l-5.47725,-5.55222l11.28961,-4.35572l-1.84313,-1.86835l-12.75293,2.5855l-4.95969,-5.31443s-1.56014,-1.86836 -3.21337,-0.57372c-1.27343,1.67586 0.56597,3.25735 0.56597,3.25735l5.24267,5.02757l-2.54686,12.92373l1.84312,1.86836l4.29691,-11.44415l5.47724,5.55222l-0.99044,5.69943l0.70746,0.71714l3.44795,-5.31443z" fill="#B9FFCE" id="svg_73" stroke="null"/>
  </g>
  <g id="svg_76" transform="rotate(-135.3509979248047 787.76220703125,500.97357177734375) " stroke="null">
   <path d="m794.38737,507.68848l5.24266,-3.49514l-0.70746,-0.71715l-5.62246,1.00401l-5.47725,-5.55222l11.28961,-4.35572l-1.84313,-1.86835l-12.75293,2.5855l-4.95969,-5.31443s-1.56014,-1.86836 -3.21337,-0.57372c-1.27343,1.67586 0.56597,3.25735 0.56597,3.25735l5.24267,5.02757l-2.54686,12.92373l1.84312,1.86836l4.29691,-11.44415l5.47724,5.55222l-0.99044,5.69943l0.70746,0.71714l3.44795,-5.31443z" fill="#B9FFCE" id="svg_75" stroke="null"/>
  </g>
  <g id="svg_78" transform="rotate(-136.0843963623047 826.7094116210936,485.18426513671875) " stroke="null">
   <path d="m833.33467,491.89904l5.24266,-3.49514l-0.70746,-0.71715l-5.62246,1.00401l-5.47725,-5.55222l11.28961,-4.35572l-1.84313,-1.86835l-12.75293,2.5855l-4.95969,-5.31443s-1.56014,-1.86836 -3.21337,-0.57372c-1.27343,1.67586 0.56597,3.25735 0.56597,3.25735l5.24267,5.02757l-2.54686,12.92373l1.84312,1.86836l4.29691,-11.44415l5.47724,5.55222l-0.99044,5.69943l0.70746,0.71714l3.44795,-5.31443z" fill="#B9FFCE" id="svg_77" stroke="null"/>
  </g>
  <g id="svg_80" transform="rotate(-134.2245330810547 855.1306152343749,486.2368164062499) " stroke="null">
   <path d="m861.75567,492.95167l5.24266,-3.49514l-0.70746,-0.71715l-5.62246,1.00401l-5.47725,-5.55222l11.28961,-4.35572l-1.84313,-1.86835l-12.75293,2.5855l-4.95969,-5.31443s-1.56014,-1.86836 -3.21337,-0.57372c-1.27343,1.67586 0.56597,3.25735 0.56597,3.25735l5.24267,5.02757l-2.54686,12.92373l1.84312,1.86836l4.29691,-11.44415l5.47724,5.55222l-0.99044,5.69943l0.70746,0.71714l3.44795,-5.31443z" fill="#B9FFCE" id="svg_79" stroke="null"/>
  </g>
 </g>
</svg>